<svg version="1.1" id="Layer_1" xmlns="http://www.w3.org/2000/svg" xmlns:xlink="http://www.w3.org/1999/xlink" x="0px" y="0px" width="100%" viewBox="0 0 471 137" enable-background="new 0 0 471 137" xml:space="preserve">
<path fill="transparent" opacity="1.000000" stroke="none" d="
M472.000000,90.000000 
	C472.000000,105.956940 472.000000,121.913879 472.000000,138.000000 
	C433.979187,138.000000 395.958252,138.000000 357.488586,137.635742 
	C360.196686,129.761887 357.963470,126.513008 350.018799,126.932289 
	C347.870270,127.045685 345.522186,127.378059 343.605591,126.678612 
	C341.935547,126.069138 340.744476,124.147209 339.341766,122.805183 
	C340.859161,121.555565 342.220764,119.588470 343.929016,119.217499 
	C346.789825,118.596214 349.871674,118.977905 352.860626,118.965034 
	C356.565063,118.949081 358.537018,116.692680 358.606232,113.410301 
	C358.678680,109.977043 356.518311,107.991791 352.844727,108.019180 
	C348.195160,108.053841 343.543274,107.934830 338.895660,108.033653 
	C334.570740,108.125618 329.305695,112.194931 329.319977,116.514839 
	C329.343658,123.678337 330.386505,130.838455 331.000000,138.000000 
	C283.645782,138.000000 236.291550,138.000000 188.554138,137.659454 
	C189.756165,136.504105 191.375473,135.748825 192.920288,134.863556 
	C198.067627,131.913849 204.584732,130.022186 208.008789,125.693596 
	C213.910782,118.232452 219.696320,110.383133 219.378464,99.459610 
	C218.866882,81.878052 219.744919,64.258453 219.874893,46.653736 
	C219.900345,43.206451 217.824341,41.132870 214.192917,41.038399 
	C212.198029,40.986504 210.200943,40.990368 208.205154,41.007416 
	C201.369141,41.065807 200.039169,42.341095 200.018784,49.166309 
	C199.976562,63.305256 200.249496,77.450592 199.899399,91.581070 
	C199.698502,99.689484 198.553192,107.780128 193.638519,114.774857 
	C193.259659,115.040825 192.993576,115.311897 192.670959,115.935944 
	C191.292923,117.916763 190.292419,120.151161 188.587051,121.053787 
	C184.229919,123.359932 179.608978,125.202957 174.997864,126.983353 
	C170.966766,128.539795 169.859024,131.562927 172.302353,135.081741 
	C172.942154,136.003159 173.438034,137.024536 174.000000,138.000000 
	C166.312424,138.000000 158.624832,138.000000 150.440018,137.634827 
	C149.521072,136.209290 149.342331,134.939957 148.638779,134.122025 
	C143.526138,128.178177 142.272461,122.465187 149.188553,116.913795 
	C149.563202,116.613068 149.472244,115.732254 149.618866,115.020248 
	C144.623352,112.114807 142.618088,117.385262 140.841660,118.016113 
	C137.663544,116.354240 135.631836,115.291840 133.600128,114.229431 
	C132.733871,116.323059 131.248337,118.379646 131.120453,120.517441 
	C130.772980,126.326576 131.000443,132.170105 131.000000,138.000000 
	C130.250000,138.000000 129.500000,138.000000 128.333786,137.614685 
	C125.667778,130.531921 123.587746,123.768501 121.031311,117.190231 
	C120.491173,115.800339 118.205849,114.289375 116.726990,114.291771 
	C115.291595,114.294090 113.118828,115.872139 112.553612,117.275291 
	C110.097137,123.373642 108.109474,129.660828 105.618652,135.811829 
	C104.068504,134.248245 102.421608,132.928680 101.720032,131.220779 
	C100.080246,127.228920 98.837624,123.068367 97.545952,118.941139 
	C96.785645,116.511734 96.307907,114.181786 92.925842,114.007385 
	C89.415474,113.826370 88.233147,116.038116 87.351616,118.639076 
	C85.171532,125.071411 83.109482,131.543747 81.000000,138.000000 
	C79.933327,138.000000 78.866661,138.000000 77.386230,137.617004 
	C76.055527,135.150238 74.995995,133.114563 74.271408,130.965927 
	C73.782707,129.516754 73.224487,127.746964 73.626060,126.396828 
	C76.466911,116.845695 74.225479,113.935806 64.342972,113.929703 
	C60.129467,113.927094 58.797554,115.525879 58.941441,119.537376 
	C59.161930,125.684372 58.999760,131.845093 59.000000,138.000000 
	C55.638714,138.000000 52.277424,138.000000 48.487099,137.658173 
	C49.622993,135.635834 51.211216,133.976303 52.747349,132.269867 
	C55.000107,129.767334 55.583050,123.233635 53.666267,120.871155 
	C49.913815,116.246132 45.193317,113.763832 39.037373,113.963364 
	C35.443638,114.079849 33.924068,115.478523 33.984367,119.063019 
	C34.090527,125.373642 34.005165,131.687500 34.000000,138.000000 
	C31.958334,138.000000 29.916666,138.000000 27.433851,137.594986 
	C28.192200,130.954941 20.405832,134.802826 19.649441,131.173401 
	C21.892075,129.191422 23.865276,127.447548 25.838478,125.703682 
	C23.484873,124.250618 21.131268,122.797562 17.786491,120.732582 
	C20.332285,120.398132 22.096498,120.425491 23.658129,119.876534 
	C24.837982,119.461792 25.758904,118.310440 26.795067,117.486923 
	C25.816151,116.372620 25.024075,114.662392 23.814676,114.283218 
	C21.985035,113.709572 19.856606,114.162857 17.869722,114.000847 
	C14.143683,113.697037 12.868060,115.430466 12.960509,119.018127 
	C13.123455,125.341560 13.002242,131.672318 13.000000,138.000000 
	C9.024466,138.000000 5.048931,138.000000 1.000000,138.000000 
	C1.000000,118.312492 1.000000,98.624908 1.338938,78.530701 
	C3.887714,81.148613 5.831244,84.419151 8.356324,87.152443 
	C16.589941,96.064980 27.564959,98.732597 39.004681,98.886520 
	C65.133713,99.238075 91.271782,99.141457 117.404083,98.946495 
	C134.827713,98.816513 149.936890,83.254066 149.987869,65.792038 
	C150.043259,46.816074 150.040054,27.839661 149.957733,8.863897 
	C149.946350,6.241262 149.334076,3.621235 149.000000,1.000000 
	C154.354935,1.000000 159.709854,1.000000 165.538773,1.422598 
	C165.675354,4.803521 165.057526,7.760713 165.045563,10.720353 
	C164.960800,31.697245 164.998764,52.674637 165.000900,73.651871 
	C165.001526,79.811813 164.987030,85.971924 165.027847,92.131638 
	C165.057068,96.539764 167.185379,98.969353 171.738129,98.987770 
	C173.569412,98.995186 175.400864,99.020805 177.231964,99.005959 
	C184.310760,98.948578 184.986908,98.311600 184.991486,91.276009 
	C185.009323,63.805836 185.025711,36.335575 184.955154,8.865569 
	C184.948425,6.242913 184.332901,3.621819 184.000000,1.000000 
	C234.020889,1.000000 284.041779,1.000000 334.492371,1.417365 
	C334.613586,4.454892 334.043854,7.074386 334.037140,9.695319 
	C333.970337,35.807476 333.993622,61.919876 333.997650,88.032204 
	C333.999329,99.019760 334.096924,99.108673 345.215668,99.009239 
	C352.485382,98.944237 353.978790,97.493782 353.985657,90.199234 
	C354.009003,65.417496 354.048706,40.635506 353.950653,15.854132 
	C353.931030,10.901579 353.331940,5.951317 353.000000,1.000000 
	C362.687561,1.000000 372.375122,1.000000 382.874054,1.255076 
	C383.140656,2.133773 382.717896,3.013192 382.031769,3.340450 
	C376.658966,5.903072 374.204742,10.709931 374.129425,16.046566 
	C373.819458,38.005230 373.818604,59.973232 374.107727,81.932487 
	C374.199951,88.937103 377.792053,94.923195 383.760162,98.523270 
	C389.404846,101.928238 398.916718,100.537903 403.207062,95.783134 
	C408.168457,90.284721 414.380981,85.094513 412.104706,76.030724 
	C411.429382,73.341820 412.000549,70.339874 412.000549,66.493729 
	C414.922821,68.382530 416.837372,69.182899 418.165009,70.552284 
	C424.584137,77.173439 430.605804,84.198372 437.263824,90.561783 
	C440.599609,93.749924 444.758453,96.333878 448.962463,98.297379 
	C455.560486,101.379021 466.321930,97.441994 469.934265,91.342506 
	C470.309265,90.709290 471.296692,90.438782 472.000000,90.000000 
M288.326263,81.557678 
	C284.321289,87.012459 278.359222,87.818756 272.318909,87.938683 
	C261.991333,88.143730 251.657059,87.988380 241.326141,88.061211 
	C237.633301,88.087242 235.215240,89.915428 235.169037,93.764786 
	C235.121628,97.714493 237.361847,99.109856 241.289062,99.064957 
	C255.451309,98.903091 269.635773,99.456535 283.775330,98.866310 
	C299.553284,98.207703 314.937134,90.061508 318.284576,73.040039 
	C319.644165,66.126678 320.224945,58.936802 317.090363,52.015553 
	C312.181366,41.176262 303.211639,35.544060 292.124634,34.157299 
	C279.806122,32.616497 267.290588,32.643608 254.859436,32.015316 
	C251.012878,31.820906 247.712997,32.749500 247.186371,37.232880 
	C246.767471,40.799137 249.688232,42.822914 254.718826,42.955444 
	C264.269897,43.207054 273.613586,42.774540 283.081482,46.484432 
	C295.981903,51.539318 300.756897,69.865234 290.313660,79.790031 
	C289.784302,80.170975 289.254974,80.551918 288.326263,81.557678 
M187.002625,89.067856 
	C187.002625,61.475590 187.002625,33.883324 187.002625,6.291059 
	C186.755661,6.292928 186.508698,6.294796 186.261734,6.296665 
	C186.261734,35.458450 186.261734,64.620239 186.261734,93.782028 
	C186.450668,93.791519 186.639587,93.801018 186.828522,93.810516 
	C186.886307,92.510414 186.944077,91.210320 187.002625,89.067856 
M333.002167,34.500000 
	C333.002167,25.055130 333.002167,15.610259 333.002167,6.165389 
	C332.771545,6.167945 332.540955,6.170502 332.310333,6.173059 
	C332.310333,35.386963 332.310333,64.600868 332.310333,93.814766 
	C332.540955,93.815361 332.771545,93.815956 333.002167,93.816544 
	C333.002167,74.377701 333.002167,54.938850 333.002167,34.500000 
M355.000000,82.463638 
	C355.000000,86.038033 355.000000,89.612419 355.000000,93.186813 
	C355.214630,93.179222 355.429260,93.171638 355.643890,93.164047 
	C355.643890,64.121269 355.643890,35.078484 355.643890,6.035699 
	C355.429260,6.036073 355.214630,6.036448 355.000000,6.036822 
	C355.000000,31.183075 355.000000,56.329327 355.000000,82.463638 
M152.005310,24.500278 
	C152.005310,18.100555 152.005310,11.700833 152.005310,5.301111 
	C151.786057,5.304844 151.566818,5.308578 151.347565,5.312310 
	C151.347565,24.827375 151.347565,44.342442 151.347565,63.857506 
	C151.566818,63.857285 151.786072,63.857059 152.005325,63.856838 
	C152.005325,51.071274 152.005325,38.285706 152.005310,24.500278 
M198.996231,72.499870 
	C198.996231,64.087219 198.996231,55.674572 198.996231,47.261921 
	C198.754852,47.268669 198.513474,47.275417 198.272095,47.282162 
	C198.272095,62.456261 198.272095,77.630356 198.272095,92.804451 
	C198.513474,92.806801 198.754837,92.809158 198.996216,92.811516 
	C198.996216,86.374252 198.996216,79.936989 198.996231,72.499870 
M221.000000,68.500046 
	C221.000000,74.307831 221.000000,80.115616 221.000000,85.923401 
	C221.333328,85.917892 221.666672,85.912384 222.000000,85.906868 
	C222.000000,80.104553 222.000000,74.302231 222.000000,68.499908 
	C222.000000,62.692162 222.000000,56.884411 222.000000,51.076664 
	C221.666672,51.082020 221.333328,51.087376 221.000000,51.092731 
	C221.000000,56.562244 221.000000,62.031754 221.000000,68.500046 
M254.218460,30.953373 
	C262.473297,30.953373 270.728119,30.953373 278.982971,30.953373 
	C278.656067,30.215374 278.344452,30.058542 278.032227,30.057241 
	C271.882904,30.031591 265.732361,29.954725 259.584717,30.052795 
	C257.611053,30.084282 255.644913,30.587372 254.218460,30.953373 
z"/>
<path fill="transparent" opacity="1.000000" stroke="none" 
	d="
M1.000001,54.000000 
	C1.000000,36.375431 1.000000,18.750864 1.000000,1.000000 
	C44.354149,1.000000 87.708420,1.000000 131.493256,1.417421 
	C131.616394,4.287510 131.053421,6.739046 131.042542,9.193028 
	C130.965195,26.646555 130.512024,44.118847 131.163651,61.548336 
	C131.636826,74.204536 119.997810,89.486969 105.422424,88.128777 
	C89.688065,88.112015 74.409912,88.143257 58.662910,88.139137 
	C52.910881,87.711861 47.618469,87.415901 42.346428,86.908356 
	C30.823046,85.798965 22.378887,74.248901 23.098814,63.841892 
	C23.275871,61.282394 24.539072,58.816910 24.965864,56.252113 
	C26.054325,49.711067 31.980173,44.315788 38.677090,44.012691 
	C40.667328,43.922619 43.178410,44.601681 44.532051,43.637890 
	C46.700607,42.093884 49.201458,39.586941 49.441311,37.267696 
	C49.600498,35.728470 46.047882,32.286911 44.179337,32.303070 
	C32.123280,32.407307 20.219730,33.935646 10.875157,42.694836 
	C7.242714,46.099731 4.272095,50.210674 1.000001,54.000000 
M88.461334,48.002625 
	C91.602524,47.815876 94.975838,48.264053 97.806915,47.229050 
	C99.844765,46.484043 101.159676,43.761562 102.797050,41.921150 
	C100.708084,40.303925 98.836182,38.014297 96.471565,37.250923 
	C93.898659,36.420311 90.868195,37.003468 88.037170,36.976994 
	C85.559059,36.953819 83.249535,36.710922 83.109741,33.433811 
	C82.965782,30.059254 85.129761,29.171663 87.909210,29.059469 
	C91.069099,28.931923 94.255836,29.115034 97.388977,28.775839 
	C100.740685,28.412977 102.217979,26.285917 101.962898,22.853441 
	C101.718605,19.566153 99.969498,18.064327 96.802727,18.049686 
	C91.806435,18.026585 86.788841,17.768190 81.820274,18.141645 
	C77.942398,18.433117 74.084831,19.832563 73.182121,24.256113 
	C72.390808,28.133776 72.103844,32.163567 72.048256,36.132523 
	C71.906540,46.250671 73.752678,47.978069 83.997574,48.001831 
	C85.163483,48.004536 86.329414,48.002483 88.461334,48.002625 
z"/>
<path fill="#00A5A5" opacity="1.000000" stroke="none" 
	d="
M472.000000,89.532059 
	C471.296692,90.438782 470.309265,90.709290 469.934265,91.342506 
	C466.321930,97.441994 455.560486,101.379021 448.962463,98.297379 
	C444.758453,96.333878 440.599609,93.749924 437.263824,90.561783 
	C430.605804,84.198372 424.584137,77.173439 418.165009,70.552284 
	C416.837372,69.182899 414.922821,68.382530 412.000549,66.493729 
	C412.000549,70.339874 411.429382,73.341820 412.104706,76.030724 
	C414.380981,85.094513 408.168457,90.284721 403.207062,95.783134 
	C398.916718,100.537903 389.404846,101.928238 383.760162,98.523270 
	C377.792053,94.923195 374.199951,88.937103 374.107727,81.932487 
	C373.818604,59.973232 373.819458,38.005230 374.129425,16.046566 
	C374.204742,10.709931 376.658966,5.903072 382.031769,3.340450 
	C382.717896,3.013192 383.140656,2.133773 383.342712,1.255076 
	C410.020905,1.000000 437.041779,1.000000 464.217468,1.270533 
	C466.914856,4.360709 469.457428,7.180351 472.000000,9.999997 
	C472.000000,15.354930 472.000000,20.709860 471.721497,26.211979 
	C470.931915,26.780251 470.203613,27.096716 469.942810,27.638315 
	C466.674927,34.424774 460.824768,36.130745 453.934570,36.021336 
	C448.218628,35.930573 442.500031,36.002762 438.784119,36.002762 
	C441.535645,39.413200 444.759918,43.749924 448.337555,47.772419 
	C455.528992,55.858006 462.902679,63.781849 470.253448,71.724014 
	C470.567932,72.063782 471.405884,71.919037 472.000000,72.000000 
	C472.000000,77.688042 472.000000,83.376083 472.000000,89.532059 
z"/>
<path fill="#fff" opacity="1.000000" stroke="none" 
	d="
M1.000001,54.468636 
	C4.272095,50.210674 7.242714,46.099731 10.875157,42.694836 
	C20.219730,33.935646 32.123280,32.407307 44.179337,32.303070 
	C46.047882,32.286911 49.600498,35.728470 49.441311,37.267696 
	C49.201458,39.586941 46.700607,42.093884 44.532051,43.637890 
	C43.178410,44.601681 40.667328,43.922619 38.677090,44.012691 
	C31.980173,44.315788 26.054325,49.711067 24.965864,56.252113 
	C24.539072,58.816910 23.275871,61.282394 23.098814,63.841892 
	C22.378887,74.248901 30.823046,85.798965 42.346428,86.908356 
	C47.618469,87.415901 52.910881,87.711861 59.032398,88.285294 
	C71.933464,88.644341 83.995819,88.889076 96.059151,88.955101 
	C99.330788,88.973000 102.605385,88.450981 105.878624,88.176781 
	C119.997810,89.486969 131.636826,74.204536 131.163651,61.548336 
	C130.512024,44.118847 130.965195,26.646555 131.042542,9.193028 
	C131.053421,6.739046 131.616394,4.287510 131.961914,1.417421 
	C137.354935,1.000000 142.709854,1.000000 148.532394,1.000000 
	C149.334076,3.621235 149.946350,6.241262 149.957733,8.863897 
	C150.040054,27.839661 150.043259,46.816074 149.987869,65.792038 
	C149.936890,83.254066 134.827713,98.816513 117.404083,98.946495 
	C91.271782,99.141457 65.133713,99.238075 39.004681,98.886520 
	C27.564959,98.732597 16.589941,96.064980 8.356324,87.152443 
	C5.831244,84.419151 3.887714,81.148613 1.338938,78.062042 
	C1.000000,70.312424 1.000000,62.624847 1.000001,54.468636 
z"/>
<path fill="#fff" opacity="1.000000" stroke="none" 
	d="
M193.751282,114.779961 
	C198.553192,107.780128 199.698502,99.689484 199.899399,91.581070 
	C200.249496,77.450592 199.976562,63.305256 200.018784,49.166309 
	C200.039169,42.341095 201.369141,41.065807 208.205154,41.007416 
	C210.200943,40.990368 212.198029,40.986504 214.192917,41.038399 
	C217.824341,41.132870 219.900345,43.206451 219.874893,46.653736 
	C219.744919,64.258453 218.866882,81.878052 219.378464,99.459610 
	C219.696320,110.383133 213.910782,118.232452 208.008789,125.693596 
	C204.584732,130.022186 198.067627,131.913849 192.920288,134.863556 
	C191.375473,135.748825 189.756165,136.504105 188.085480,137.659454 
	C183.643097,138.000000 179.286194,138.000000 174.464645,138.000000 
	C173.438034,137.024536 172.942154,136.003159 172.302353,135.081741 
	C169.859024,131.562927 170.966766,128.539795 174.997864,126.983353 
	C179.608978,125.202957 184.229919,123.359932 188.587051,121.053787 
	C190.292419,120.151161 191.292923,117.916763 192.907669,115.909637 
	C193.508423,115.371422 193.691879,115.121284 193.751282,114.779961 
z"/>
<path fill="#fff" opacity="1.000000" stroke="none" 
	d="
M183.532059,1.000000 
	C184.332901,3.621819 184.948425,6.242913 184.955154,8.865569 
	C185.025711,36.335575 185.009323,63.805836 184.991486,91.276009 
	C184.986908,98.311600 184.310760,98.948578 177.231964,99.005959 
	C175.400864,99.020805 173.569412,98.995186 171.738129,98.987770 
	C167.185379,98.969353 165.057068,96.539764 165.027847,92.131638 
	C164.987030,85.971924 165.001526,79.811813 165.000900,73.651871 
	C164.998764,52.674637 164.960800,31.697245 165.045563,10.720353 
	C165.057526,7.760713 165.675354,4.803521 166.006378,1.422598 
	C171.688034,1.000000 177.376083,1.000000 183.532059,1.000000 
z"/>
<path fill="#fff" opacity="1.000000" stroke="none" 
	d="
M352.532043,1.000000 
	C353.331940,5.951317 353.931030,10.901579 353.950653,15.854132 
	C354.048706,40.635506 354.009003,65.417496 353.985657,90.199234 
	C353.978790,97.493782 352.485382,98.944237 345.215668,99.009239 
	C334.096924,99.108673 333.999329,99.019760 333.997650,88.032204 
	C333.993622,61.919876 333.970337,35.807476 334.037140,9.695319 
	C334.043854,7.074386 334.613586,4.454892 334.960999,1.417365 
	C340.688049,1.000000 346.376068,1.000000 352.532043,1.000000 
z"/>
<path fill="#fff" opacity="1.000000" stroke="none" 
	d="
M331.468658,138.000000 
	C330.386505,130.838455 329.343658,123.678337 329.319977,116.514839 
	C329.305695,112.194931 334.570740,108.125618 338.895660,108.033653 
	C343.543274,107.934830 348.195160,108.053841 352.844727,108.019180 
	C356.518311,107.991791 358.678680,109.977043 358.606232,113.410301 
	C358.537018,116.692680 356.565063,118.949081 352.860626,118.965034 
	C349.871674,118.977905 346.789825,118.596214 343.929016,119.217499 
	C342.220764,119.588470 340.859161,121.555565 339.341766,122.805183 
	C340.744476,124.147209 341.935547,126.069138 343.605591,126.678612 
	C345.522186,127.378059 347.870270,127.045685 350.018799,126.932289 
	C357.963470,126.513008 360.196686,129.761887 357.019958,137.635742 
	C348.645782,138.000000 340.291534,138.000000 331.468658,138.000000 
z"/>
<path fill="transparent" opacity="1.000000" stroke="none" 
	d="
M472.000000,71.531342 
	C471.405884,71.919037 470.567932,72.063782 470.253448,71.724014 
	C462.902679,63.781849 455.528992,55.858006 448.337555,47.772419 
	C444.759918,43.749924 441.535645,39.413200 438.784119,36.002762 
	C442.500031,36.002762 448.218628,35.930573 453.934570,36.021336 
	C460.824768,36.130745 466.674927,34.424774 469.942810,27.638315 
	C470.203613,27.096716 470.931915,26.780251 471.721497,26.679585 
	C472.000000,41.687561 472.000000,56.375122 472.000000,71.531342 
z"/>
<path fill="#fff" opacity="1.000000" stroke="none" 
	d="
M34.464653,138.000000 
	C34.005165,131.687500 34.090527,125.373642 33.984367,119.063019 
	C33.924068,115.478523 35.443638,114.079849 39.037373,113.963364 
	C45.193317,113.763832 49.913815,116.246132 53.666267,120.871155 
	C55.583050,123.233635 55.000107,129.767334 52.747349,132.269867 
	C51.211216,133.976303 49.622993,135.635834 48.029030,137.658173 
	C43.643101,138.000000 39.286201,138.000000 34.464653,138.000000 
M46.936680,123.804283 
	C46.516266,119.243790 43.490269,120.003372 40.539421,120.226288 
	C40.539421,124.482765 40.539421,128.295746 40.539421,132.324081 
	C45.067680,131.198242 47.645161,129.194305 46.936680,123.804283 
z"/>
<path fill="#fff" opacity="1.000000" stroke="none" 
	d="
M59.428463,138.000000 
	C58.999760,131.845093 59.161930,125.684372 58.941441,119.537376 
	C58.797554,115.525879 60.129467,113.927094 64.342972,113.929703 
	C74.225479,113.935806 76.466911,116.845695 73.626060,126.396828 
	C73.224487,127.746964 73.782707,129.516754 74.271408,130.965927 
	C74.995995,133.114563 76.055527,135.150238 76.986237,137.617004 
	C75.285645,138.000000 73.571281,138.000000 71.364960,137.657272 
	C69.251602,134.734756 67.630203,132.154953 66.008804,129.575165 
	C65.672539,129.771240 65.336266,129.967316 65.000000,130.163406 
	C65.000000,132.775604 65.000000,135.387802 65.000000,138.000000 
	C63.285641,138.000000 61.571285,138.000000 59.428463,138.000000 
z"/>
<path fill="#fff" opacity="1.000000" stroke="none" 
	d="
M131.428467,138.000000 
	C131.000443,132.170105 130.772980,126.326576 131.120453,120.517441 
	C131.248337,118.379646 132.733871,116.323059 133.600128,114.229431 
	C135.631836,115.291840 137.663544,116.354240 140.841660,118.016113 
	C142.618088,117.385262 144.623352,112.114807 149.618866,115.020248 
	C149.472244,115.732254 149.563202,116.613068 149.188553,116.913795 
	C142.272461,122.465187 143.526138,128.178177 148.638779,134.122025 
	C149.342331,134.939957 149.521072,136.209290 149.971390,137.634827 
	C147.958328,138.000000 145.916672,138.000000 143.482834,137.719452 
	C142.036194,135.984772 140.981705,134.530609 139.779541,132.850510 
	C139.127670,132.118607 138.623459,131.612656 137.864655,131.190643 
	C137.406708,133.516373 137.203354,135.758179 137.000000,138.000000 
	C135.285645,138.000000 133.571289,138.000000 131.428467,138.000000 
z"/>
<path fill="#fff" opacity="1.000000" stroke="none" 
	d="
M81.437500,138.000000 
	C83.109482,131.543747 85.171532,125.071411 87.351616,118.639076 
	C88.233147,116.038116 89.415474,113.826370 92.925842,114.007385 
	C96.307907,114.181786 96.785645,116.511734 97.545952,118.941139 
	C98.837624,123.068367 100.080246,127.228920 101.720032,131.220779 
	C102.421608,132.928680 104.068504,134.248245 105.628738,136.165497 
	C105.981071,137.057831 105.990532,137.528915 106.000000,138.000000 
	C103.299988,138.000000 100.599968,138.000000 97.478546,137.604004 
	C97.013176,133.698669 94.888130,132.910278 91.846451,133.038681 
	C88.491829,133.180267 87.845261,135.234451 88.000000,138.000000 
	C85.958336,138.000000 83.916664,138.000000 81.437500,138.000000 
z"/>
<path fill="#fff" opacity="1.000000" stroke="none" 
	d="
M106.428459,138.000000 
	C105.990532,137.528915 105.981071,137.057831 105.961525,136.233063 
	C108.109474,129.660828 110.097137,123.373642 112.553612,117.275291 
	C113.118828,115.872139 115.291595,114.294090 116.726990,114.291771 
	C118.205849,114.289375 120.491173,115.800339 121.031311,117.190231 
	C123.587746,123.768501 125.667778,130.531921 127.958786,137.614685 
	C125.958336,138.000000 123.916664,138.000000 121.467834,137.604797 
	C120.977760,134.445206 119.677010,133.108841 116.789406,133.011398 
	C113.163574,132.889038 112.564209,135.352982 112.000000,138.000000 
	C110.285645,138.000000 108.571281,138.000000 106.428459,138.000000 
z"/>
<path fill="#fff" opacity="1.000000" stroke="none" 
	d="
M13.464651,138.000000 
	C13.002242,131.672318 13.123455,125.341560 12.960509,119.018127 
	C12.868060,115.430466 14.143683,113.697037 17.869722,114.000847 
	C19.856606,114.162857 21.985035,113.709572 23.814676,114.283218 
	C25.024075,114.662392 25.816151,116.372620 26.795067,117.486923 
	C25.758904,118.310440 24.837982,119.461792 23.658129,119.876534 
	C22.096498,120.425491 20.332285,120.398132 17.786491,120.732582 
	C21.131268,122.797562 23.484873,124.250618 25.838478,125.703682 
	C23.865276,127.447548 21.892075,129.191422 19.649441,131.173401 
	C20.405832,134.802826 28.192200,130.954941 26.996351,137.594986 
	C22.643101,138.000000 18.286201,138.000000 13.464651,138.000000 
z"/>
<path fill="transparent" opacity="1.000000" stroke="none" 
	d="
M88.449982,138.000000 
	C87.845261,135.234451 88.491829,133.180267 91.846451,133.038681 
	C94.888130,132.910278 97.013176,133.698669 97.028564,137.604004 
	C94.299988,138.000000 91.599968,138.000000 88.449982,138.000000 
z"/>
<path fill="transparent" opacity="1.000000" stroke="none" 
	d="
M472.000000,9.508949 
	C469.457428,7.180351 466.914856,4.360709 464.686127,1.270533 
	C467.260773,1.000000 469.521515,1.000000 472.000000,1.000000 
	C472.000000,3.670655 472.000000,6.344279 472.000000,9.508949 
z"/>
<path fill="transparent" opacity="1.000000" stroke="none" 
	d="
M112.449982,138.000000 
	C112.564209,135.352982 113.163574,132.889038 116.789406,133.011398 
	C119.677010,133.108841 120.977760,134.445206 121.030334,137.604797 
	C118.299988,138.000000 115.599968,138.000000 112.449982,138.000000 
z"/>
<path fill="transparent" opacity="1.000000" stroke="none" 
	d="
M65.428467,138.000000 
	C65.000000,135.387802 65.000000,132.775604 65.000000,130.163406 
	C65.336266,129.967316 65.672539,129.771240 66.008804,129.575165 
	C67.630203,132.154953 69.251602,134.734756 70.936501,137.657272 
	C69.285645,138.000000 67.571281,138.000000 65.428467,138.000000 
z"/>
<path fill="transparent" opacity="1.000000" stroke="none" 
	d="
M137.428467,138.000000 
	C137.203354,135.758179 137.406708,133.516373 137.831207,131.514938 
	C138.130829,132.885330 138.209290,134.015335 138.323135,135.654739 
	C139.105347,134.397476 139.516296,133.736969 139.927231,133.076462 
	C140.981705,134.530609 142.036194,135.984772 143.045334,137.719452 
	C141.285645,138.000000 139.571289,138.000000 137.428467,138.000000 
z"/>
<path fill="#fff" opacity="1.000000" stroke="none" 
	d="
M290.574188,79.753937 
	C300.756897,69.865234 295.981903,51.539318 283.081482,46.484432 
	C273.613586,42.774540 264.269897,43.207054 254.718826,42.955444 
	C249.688232,42.822914 246.767471,40.799137 247.186371,37.232880 
	C247.712997,32.749500 251.012878,31.820906 254.859436,32.015316 
	C267.290588,32.643608 279.806122,32.616497 292.124634,34.157299 
	C303.211639,35.544060 312.181366,41.176262 317.090363,52.015553 
	C320.224945,58.936802 319.644165,66.126678 318.284576,73.040039 
	C314.937134,90.061508 299.553284,98.207703 283.775330,98.866310 
	C269.635773,99.456535 255.451309,98.903091 241.289062,99.064957 
	C237.361847,99.109856 235.121628,97.714493 235.169037,93.764786 
	C235.215240,89.915428 237.633301,88.087242 241.326141,88.061211 
	C251.657059,87.988380 261.991333,88.143730 272.318909,87.938683 
	C278.359222,87.818756 284.321289,87.012459 288.773682,81.365540 
	C289.672119,80.700241 290.123138,80.227089 290.574188,79.753937 
z"/>
<path fill="transparent" opacity="1.000000" stroke="none" 
	d="
M187.002243,89.489037 
	C186.944077,91.210320 186.886307,92.510414 186.828522,93.810516 
	C186.639587,93.801018 186.450668,93.791519 186.261734,93.782028 
	C186.261734,64.620239 186.261734,35.458450 186.261734,6.296665 
	C186.508698,6.294796 186.755661,6.292928 187.002625,6.291059 
	C187.002625,33.883324 187.002625,61.475590 187.002243,89.489037 
z"/>
<path fill="transparent" opacity="1.000000" stroke="none" 
	d="
M333.002167,35.000000 
	C333.002167,54.938850 333.002167,74.377701 333.002167,93.816544 
	C332.771545,93.815956 332.540955,93.815361 332.310333,93.814766 
	C332.310333,64.600868 332.310333,35.386963 332.310333,6.173059 
	C332.540955,6.170502 332.771545,6.167945 333.002167,6.165389 
	C333.002167,15.610259 333.002167,25.055130 333.002167,35.000000 
z"/>
<path fill="transparent" opacity="1.000000" stroke="none" 
	d="
M355.000000,81.969604 
	C355.000000,56.329327 355.000000,31.183075 355.000000,6.036822 
	C355.214630,6.036448 355.429260,6.036073 355.643890,6.035699 
	C355.643890,35.078484 355.643890,64.121269 355.643890,93.164047 
	C355.429260,93.171638 355.214630,93.179222 355.000000,93.186813 
	C355.000000,89.612419 355.000000,86.038033 355.000000,81.969604 
z"/>
<path fill="transparent" opacity="1.000000" stroke="none" 
	d="
M152.005310,25.000208 
	C152.005325,38.285706 152.005325,51.071274 152.005325,63.856838 
	C151.786072,63.857059 151.566818,63.857285 151.347565,63.857506 
	C151.347565,44.342442 151.347565,24.827375 151.347565,5.312310 
	C151.566818,5.308578 151.786057,5.304844 152.005310,5.301111 
	C152.005310,11.700833 152.005310,18.100555 152.005310,25.000208 
z"/>
<path fill="#fff" opacity="1.000000" stroke="none" 
	d="
M198.996216,72.999802 
	C198.996216,79.936989 198.996216,86.374252 198.996216,92.811516 
	C198.754837,92.809158 198.513474,92.806801 198.272095,92.804451 
	C198.272095,77.630356 198.272095,62.456261 198.272095,47.282162 
	C198.513474,47.275417 198.754852,47.268669 198.996231,47.261921 
	C198.996231,55.674572 198.996231,64.087219 198.996216,72.999802 
z"/>
<path fill="transparent" opacity="1.000000" stroke="none" 
	d="
M221.000000,68.000656 
	C221.000000,62.031754 221.000000,56.562244 221.000000,51.092731 
	C221.333328,51.087376 221.666672,51.082020 222.000000,51.076664 
	C222.000000,56.884411 222.000000,62.692162 222.000000,68.499908 
	C222.000000,74.302231 222.000000,80.104553 222.000000,85.906868 
	C221.666672,85.912384 221.333328,85.917892 221.000000,85.923401 
	C221.000000,80.115616 221.000000,74.307831 221.000000,68.000656 
z"/>
<path fill="#fff" opacity="1.000000" stroke="none" 
	d="
M253.946899,30.914036 
	C255.644913,30.587372 257.611053,30.084282 259.584717,30.052795 
	C265.732361,29.954725 271.882904,30.031591 278.032227,30.057241 
	C278.344452,30.058542 278.656067,30.215374 278.982971,30.953373 
	C270.728119,30.953373 262.473297,30.953373 253.946899,30.914036 
z"/>
<path fill="transparent" opacity="1.000000" stroke="none" 
	d="
M290.443909,79.771988 
	C290.123138,80.227089 289.672119,80.700241 288.973358,81.053131 
	C289.254974,80.551918 289.784302,80.170975 290.443909,79.771988 
z"/>
<path fill="transparent" opacity="1.000000" stroke="none" 
	d="
M193.638519,114.774857 
	C193.691879,115.121284 193.508423,115.371422 192.964203,115.556671 
	C192.993576,115.311897 193.259659,115.040825 193.638519,114.774857 
z"/>
<path fill="#fff" opacity="1.000000" stroke="none" 
	d="
M87.978333,48.002632 
	C86.329414,48.002483 85.163483,48.004536 83.997574,48.001831 
	C73.752678,47.978069 71.906540,46.250671 72.048256,36.132523 
	C72.103844,32.163567 72.390808,28.133776 73.182121,24.256113 
	C74.084831,19.832563 77.942398,18.433117 81.820274,18.141645 
	C86.788841,17.768190 91.806435,18.026585 96.802727,18.049686 
	C99.969498,18.064327 101.718605,19.566153 101.962898,22.853441 
	C102.217979,26.285917 100.740685,28.412977 97.388977,28.775839 
	C94.255836,29.115034 91.069099,28.931923 87.909210,29.059469 
	C85.129761,29.171663 82.965782,30.059254 83.109741,33.433811 
	C83.249535,36.710922 85.559059,36.953819 88.037170,36.976994 
	C90.868195,37.003468 93.898659,36.420311 96.471565,37.250923 
	C98.836182,38.014297 100.708084,40.303925 102.797050,41.921150 
	C101.159676,43.761562 99.844765,46.484043 97.806915,47.229050 
	C94.975838,48.264053 91.602524,47.815876 87.978333,48.002632 
z"/>
<path fill="transparent" opacity="1.000000" stroke="none" 
	d="
M105.422424,88.128777 
	C102.605385,88.450981 99.330788,88.973000 96.059151,88.955101 
	C83.995819,88.889076 71.933464,88.644341 59.501251,88.320663 
	C74.409912,88.143257 89.688065,88.112015 105.422424,88.128777 
z"/>
<path fill="transparent" opacity="1.000000" stroke="none" 
	d="
M46.953140,124.214447 
	C47.645161,129.194305 45.067680,131.198242 40.539421,132.324081 
	C40.539421,128.295746 40.539421,124.482765 40.539421,120.226288 
	C43.490269,120.003372 46.516266,119.243790 46.953140,124.214447 
z"/>
<path fill="transparent" opacity="1.000000" stroke="none" 
	d="
M139.779541,132.850510 
	C139.516296,133.736969 139.105347,134.397476 138.323135,135.654739 
	C138.209290,134.015335 138.130829,132.885330 138.085815,131.431030 
	C138.623459,131.612656 139.127670,132.118607 139.779541,132.850510 
z"/>
</svg>