<svg xmlns="http://www.w3.org/2000/svg" viewBox="0 0 677 237.76"><defs><style>.cls-1{fill:#fff;}.cls-2{fill:#ec571a;}</style></defs><g id="Layer_2" data-name="Layer 2"><g id="Layer_1-2" data-name="Layer 1"><path class="cls-1" d="M69.87,181q-33.09,0-52.37-20.41Q0,141.9,0,110.83A84.51,84.51,0,0,1,1.27,96.12Q2.53,88.77,8.5,74.94L43,84.71q-5.33,12.67-6.09,16.86a50.38,50.38,0,0,0-.76,9.26q0,18.77,8.62,27.9,7.37,7.72,21.31,7.73H87.88q13.82,13.69,13.82,13.82-18.14-18.76-18.13-48.06,0-31.18,17.5-49.7Q120.47,42,153.44,42q33.23,0,52.5,20.42,17.49,18.51,17.49,49.83,0,29.68-18.26,48.32Q185.4,181,153.31,181Zm105-96.75q-7.23-7.74-21.43-7.74-14,0-21.18,7.74-8.74,9.26-8.75,28,0,16.74,8.88,25.87,8.12,8.37,20.92,8.37,13.44,0,21.3-8.11,8.88-9.14,8.88-26.13Q183.49,93.2,174.87,84.2ZM134.8,17.37a16.54,16.54,0,0,1,1.39-6.72A18.2,18.2,0,0,1,140,5.07a17.52,17.52,0,0,1,5.51-3.74A16.37,16.37,0,0,1,152,0a16.88,16.88,0,0,1,6.6,1.33,17.3,17.3,0,0,1,10.65,16A17.17,17.17,0,0,1,168,24.16a16.27,16.27,0,0,1-3.74,5.39,18.54,18.54,0,0,1-5.58,3.61,16.88,16.88,0,0,1-6.6,1.33,16.37,16.37,0,0,1-6.53-1.33A18.58,18.58,0,0,1,140,29.55a16.91,16.91,0,0,1-3.81-5.39A16.36,16.36,0,0,1,134.8,17.37Z"/><path class="cls-1" d="M232.31,196.81a70.28,70.28,0,0,0,7.86-11.16q7.23-13.44,7.23-31.2V64.8h39.94v89q0,25.6-10.9,46.28a105.2,105.2,0,0,1-11.67,17q-6.6,7.88-20.54,20.67l-33.1-19.9Q227.23,203,232.31,196.81Z"/><path class="cls-1" d="M343.5,16.61V132.39a14.35,14.35,0,0,0,4.31,10.78,9.8,9.8,0,0,0,7,3.29h8.88V181h-8.88q-22.06,0-37.15-15.21-14.08-14-14.08-33.35V16.61Z"/><path class="cls-1" d="M543.67,115.44q0-29.75,16.68-47.39,18.49-19.57,49.92-19.58,31.68,0,50.05,19.46Q677,85.59,677,115.44q0,28.27-17.41,46.05Q640.73,181,610.15,181q-30.35,0-43.27-13.78Q552.26,181,518.77,181V148.07q15.71,0,19.82-4.23,5.08-5.19,5.08-15.83Zm87-26.72q-6.88-7.36-20.43-7.37-13.29,0-20.18,7.37-8.34,8.82-8.34,26.72,0,15.94,8.46,24.66,7.72,8,19.94,8,12.81,0,20.31-7.73,8.46-8.7,8.46-24.9Q638.92,97.31,630.7,88.72Z"/><polygon class="cls-1" points="359.5 180.95 523.5 180.91 520 148.07 359.5 146.46 359.5 180.95"/><path class="cls-2" d="M390.42,73.13a57.75,57.75,0,0,0,10.16,70.8c14.24,13.61,31.46,17.79,50.64,15.31l7.35-2.57,1.36.31c1.25,2.53,2.5,5.08,3.76,7.61q12.57,22.54,25.16,45.1c6.45,11.58,18,15.12,27.89,8.52,9.64-6.44,11-18.39,3.21-28.55-11.45-14.88-22.9-29.76-34.56-44.47-2.18-2.76-2.21-4.39,0-7.12a54.21,54.21,0,0,0,12.68-34.21c.48-26.51-16.32-50-41.14-57.17C431.23,39.28,403.65,50.24,390.42,73.13Zm88.77,3.72c14.51,20.42,8.3,51.43-12.68,63.32l-.07.05c-1.44,3.69-5.2,3.29-8,4.54a5.43,5.43,0,0,0-.56,1.1,2.45,2.45,0,0,0-2.55.83c-30.44,8.32-51.14-9.67-58.14-27.06a46.79,46.79,0,0,1,22.59-59.31C441.25,49.77,467.5,57.07,479.19,76.85Z"/><path class="cls-2" d="M452.93,76.91c-.65,4.8-4.19,4.72-7.54,4.14-8.32-1.45-15.89,1.2-22.87,6.36-2.79,2.07-5.74,3.76-7.83.5-2.44-3.83.59-6.39,3.45-8.47,8.89-6.48,18.45-9.32,27.89-8C449.88,72.22,453.53,72.35,452.93,76.91Z"/><path class="cls-2" d="M440.44,159.9a57.76,57.76,0,1,1,57.76-57.76A57.82,57.82,0,0,1,440.44,159.9Zm0-97.34A39.58,39.58,0,1,0,480,102.14,39.62,39.62,0,0,0,440.44,62.56Z"/><path class="cls-2" d="M467.66,82.33a6.26,6.26,0,1,1-6.25-6.25A6.25,6.25,0,0,1,467.66,82.33Z"/></g></g></svg>